<?xml version="1.0" encoding="utf-8"?>
<!-- Generator: Adobe Illustrator 25.0.1, SVG Export Plug-In . SVG Version: 6.00 Build 0)  -->
<svg version="1.1" id="Ebene_1" xmlns="http://www.w3.org/2000/svg" xmlns:xlink="http://www.w3.org/1999/xlink" x="0px" y="0px"
	 viewBox="0 0 1361 300" style="enable-background:new 0 0 1361 300;" xml:space="preserve">
<style type="text/css">
	.st0{fill:url(#SVGID_1_);}
	.st1{fill:url(#SVGID_2_);}
	.st2{fill:#FFFFFF;}
</style>
<g>
	<path d="M1223.9,115.7c-0.2-2.7-4.2-3.3-5.1-0.5c-0.6,2.4-2.6,7.3,1.7,7.4C1223.2,122.6,1223.6,117.7,1223.9,115.7z"/>
	<path d="M341,136.8h7.4l6.4,24.9c1,4.1,1.8,8,2.6,11.9h0.4c1-4,1.9-8,2.9-11.9l6.6-24.9h7.1l6.7,24.9c1.1,4.1,2,8,3,11.9h0.4
		c1-4,1.8-7.9,2.7-11.9l6.3-24.9h6.9l-11.5,43h-8.9l-6.2-23.1c-1.1-4.1-1.9-8.1-2.9-12.4h-0.4c-1,4.3-1.9,8.4-3,12.5l-6,23h-8.5
		L341,136.8z"/>
	<path d="M426.3,135.8c11,0,17.2,7.9,17.2,20.2c0,1.5-0.1,2.9-0.3,4h-29c0.5,9.3,6.1,15.1,14.3,15.1c4.1,0,7.5-1.3,10.7-3.4l2.6,4.8
		c-3.7,2.4-8.3,4.4-14.2,4.4c-11.5,0-20.6-8.4-20.6-22.5C407,144.4,416.5,135.8,426.3,135.8z M437.1,155.2c0-8.8-3.9-13.6-10.6-13.6
		c-6,0-11.5,5-12.4,13.6H437.1z"/>
	<path d="M455.5,116.8h7.3V134l-0.2,7.8c3.9-3.4,8.7-6,13.5-6c11.2,0,17.1,8.6,17.1,21.9c0,14.7-8.8,23.3-18.6,23.3
		c-4,0-8.5-1.9-12.3-5.3h-0.3l-0.6,4.2h-5.8V116.8z M473.2,174.8c7.1,0,12.3-6.5,12.3-17.1c0-9.5-3.2-15.8-11.3-15.8
		c-3.6,0-7.4,2-11.5,5.8v22.6C466.5,173.6,470.4,174.8,473.2,174.8z"/>
	<path d="M527.5,169.3c0-9.5,9.5-14,32.6-16c-0.1-7-2.9-13.5-12.6-13.5c-6.4,0-12.6,3.3-16.1,5.8l-1.8-2.9
		c3.4-2.4,10.8-6.3,18.4-6.3c11.4,0,16.1,7.3,16.1,16.4v27.1h-3.3l-0.4-6.4H560c-4.9,3.9-11.5,7.4-17.7,7.4
		C534.7,180.9,527.5,177.2,527.5,169.3z M560.1,169.8v-13.6c-21.6,1.9-28.6,6-28.6,12.8c0,6.1,5.7,8.4,11.4,8.4
		C548.4,177.5,554.1,174.9,560.1,169.8z"/>
	<path d="M576,137.4h3.3l0.4,6.1h0.2c4.2-4.1,10.4-7.2,15.9-7.2c12,0,18,8.5,18,21.7c0,14.4-9.3,22.9-19.9,22.9c-4,0-9.8-2.2-14.1-6
		h-0.2l0.2,8.7v15.5H576V137.4z M609.7,158c0-10.4-4.1-18.2-14.5-18.2c-4.5,0-10,2.5-15.3,7.8v23.6c4.9,4.5,10.5,6.2,13.8,6.2
		C603,177.4,609.7,169.5,609.7,158z"/>
	<path d="M623.6,137.4h3.3l0.4,6.1h0.2c4.2-4.1,10.4-7.2,15.9-7.2c12,0,18,8.5,18,21.7c0,14.4-9.3,22.9-19.9,22.9
		c-4,0-9.8-2.2-14.1-6h-0.2l0.2,8.7v15.5h-3.9V137.4z M657.3,158c0-10.4-4.1-18.2-14.5-18.2c-4.5,0-10,2.5-15.3,7.8v23.6
		c4.9,4.5,10.5,6.2,13.8,6.2C650.6,177.4,657.3,169.5,657.3,158z"/>
	<path d="M678.3,167v-47.4h-16.1v-3.4h20.1v51.4c0,6.7,3.2,9.9,9.3,9.9c2.7,0,5.6-0.7,8.8-2.2l1.3,3c-3.7,1.7-6.4,2.6-10.6,2.6
		C682.9,180.9,678.3,176.7,678.3,167z"/>
	<path d="M720.8,140.8h-21.3v-3.4h25.2v42.5h-3.9V140.8z M717.7,122.8c0-2.6,1.8-4.2,4.2-4.2c2.3,0,4.2,1.7,4.2,4.2
		c0,2.6-1.8,4.2-4.2,4.2C719.5,127,717.7,125.4,717.7,122.8z"/>
	<path d="M739.6,158.7c0-14.2,10.5-22.4,23.1-22.4c7.1,0,11.8,3.1,15.3,6.5l-2.3,2.7c-3.6-3.4-7.7-5.7-12.9-5.7
		c-11.3,0-19.1,7.7-19.1,18.9c0,11.2,7.6,18.8,19.1,18.8c5.8,0,10.5-2.6,14.3-6.1l2.1,2.7c-4.4,4.1-9.9,6.9-16.5,6.9
		C749.5,180.9,739.6,172.8,739.6,158.7z"/>
	<path d="M786.5,169.3c0-9.5,9.5-14,32.6-16c-0.1-7-2.9-13.5-12.6-13.5c-6.4,0-12.6,3.3-16.1,5.8l-1.8-2.9
		c3.4-2.4,10.8-6.3,18.4-6.3c11.4,0,16.1,7.3,16.1,16.4v27.1h-3.3l-0.4-6.4h-0.2c-4.9,3.9-11.5,7.4-17.7,7.4
		C793.7,180.9,786.5,177.2,786.5,169.3z M819.1,169.8v-13.6c-21.6,1.9-28.6,6-28.6,12.8c0,6.1,5.7,8.4,11.4,8.4
		C807.4,177.5,813.1,174.9,819.1,169.8z"/>
	<path d="M843.5,164v-23.2h-12.9v-3l12.9-0.4l0.5-14.1h3.3v14.1H870v3.4h-22.6v23.5c0,8.3,2.4,13.2,11.9,13.2
		c4.4,0,7.9-0.9,11.3-2.2l1.1,3c-3.9,1.5-7.7,2.6-12.9,2.6C847.1,180.9,843.5,174.1,843.5,164z"/>
	<path d="M899.3,140.8H878v-3.4h25.2v42.5h-3.9V140.8z M896.2,122.8c0-2.6,1.8-4.2,4.2-4.2c2.3,0,4.2,1.7,4.2,4.2
		c0,2.6-1.8,4.2-4.2,4.2C898,127,896.2,125.4,896.2,122.8z"/>
	<path d="M917.5,158.7c0-14.2,9.5-22.4,20.6-22.4c11.1,0,20.6,8.2,20.6,22.4c0,14.1-9.5,22.2-20.6,22.2
		C926.9,180.9,917.5,172.8,917.5,158.7z M954.6,158.7c0-11.2-6.9-18.9-16.5-18.9c-9.6,0-16.5,7.7-16.5,18.9
		c0,11.2,6.9,18.8,16.5,18.8C947.7,177.5,954.6,169.9,954.6,158.7z"/>
	<path d="M968.2,137.4h3.3l0.4,8.2h0.4c4.9-5.3,9.9-9.2,16.8-9.2c10.3,0,15.3,5.6,15.3,17.1v26.5h-3.9v-25.9c0-9.5-3.5-14.1-12-14.1
		c-6,0-10.2,3.1-16.3,9.6v30.5h-3.9V137.4z"/>
	<path d="M1212.8,155.5c-1.1-0.4-2.7-0.1-3.6,1.1c-9.3,8.9-22.3-6.4-33.1-3.9c-6.9-51.5-47.9,22.2-62,10.6
		c6.9-5.7,20.6-22.2,18-30.8c-9.5-2-24.4,18.6-23.8,27.8c0.1,0.1,0,0.8,0,1c-20.1,15.9-30.4,3.7-20.1-17.4l0,0c0.3-1,0.7-2,1.3-2.9
		l0-0.1c10.3-24.7,25.2-46.8,35.2-72.2c0.7-1.7-0.2-3.2-1.5-3.9c-0.6-0.3-2-0.7-3,1.1c-13.1,22.5-23.8,48.7-36.8,71.1
		c-16.1-5.9-30.4,6.9-34.1,23c-1.5,5.5-4,13.7-1.6,18.6c12.4,13.6,24.6-16.2,31.1-24.3c-1.8,22.8,17.2,23.4,31.4,12
		c18.3,20.9,56.7-57.3,61-12.1c-7.2,3.7-14.1,18.8-11.4,25.8c11.9,1.4,16.1-15.3,16.2-21.8c9.9-1.7,22.4,9.6,32.6,5l-0.3,6.9
		c0.2,3.8,5.2,2.8,5.2-0.1C1213.3,168.4,1215.5,155.8,1212.8,155.5z M1079.9,142.8c-2,3.2-3.9,6.4-5.9,9.6v0
		c-4.6,8.6-27.4,42.9-20.2,11.4c3.1-15,12.9-25.8,27.1-22.6L1079.9,142.8z M1114.2,153.2c1-1.7,13.4-20.1,12.7-12.4
		c-4.2,3.9-7.5,8.8-10.7,13.6C1115.4,155.6,1113.3,154.5,1114.2,153.2z M1171.3,163.7c-1.1,3.9-3.1,9.2-6.8,11
		c-1.9-0.4-0.5-2.1,0-3.2c1.5-2.9,2-6.6,4.6-8.6C1169.7,161.6,1171.6,162.4,1171.3,163.7z"/>
	<path d="M1283.8,159.1c8.1-6.4,13.4-2.1,21.2,1.5c13.8,4.5,31.5,3.4,54.3-3.4c1.2-0.3,1.6-1.1,1.7-1.8c0.4-1.8-1-4-3.1-3.3
		c-16.1,4.6-33.1,7.5-48.4,4.3c-5-1.2-8.7-4.1-13.4-5.8c-12.4-2.5-27.4,12.5-38.2,19.2c-1.2-4.4-0.5-18.9-6.1-17.7
		c-2.7,1-15.8,22.2-15.3,11.3c0.8-6.7,7.4-12.6,14.6-13.2c2.4-1,2.9-5.5-0.3-5.2c-10.1,1.1-21.3,10.5-19.5,21.2
		c0.6,4.2,4.4,7.3,8.5,5.6c4.2-1.7,8.2-8.3,11.4-11.5c0.8,4.4,1.5,9,1.8,13.5c-18.2,14.3-29.4,32.9-26.1,46.9
		c1.2,6.7,5.8,14,12.8,14.4c17.8-1,19.2-44.8,18.7-59.3C1266.1,169.7,1274.6,164.3,1283.8,159.1z M1251.1,206.8
		c-1.7,10-8.5,36.6-18.5,15.5c-4-16.4,6.9-29.6,20.8-42.2C1253.5,189.2,1252.8,198.5,1251.1,206.8z"/>
</g>
<linearGradient id="SVGID_1_" gradientUnits="userSpaceOnUse" x1="43.934" y1="256.066" x2="256.066" y2="43.934">
	<stop  offset="0" style="stop-color:#FFE515"/>
	<stop  offset="1" style="stop-color:#FFBE2A"/>
</linearGradient>
<circle class="st0" cx="150" cy="150" r="150"/>
<linearGradient id="SVGID_2_" gradientUnits="userSpaceOnUse" x1="50" y1="100" x2="250" y2="100">
	<stop  offset="0" style="stop-color:#2A1A00"/>
	<stop  offset="1" style="stop-color:#552F00"/>
</linearGradient>
<circle class="st1" cx="150" cy="100" r="100"/>
<g>
	<path class="st2" d="M110.9,160.9l-0.1-0.1c0.4-1.1,0.4-2.1,0-3c-0.4-0.9-0.9-1.6-1.6-2.2s-1.4-0.8-2-0.8c-0.6,0-1.1,0.2-1.4,0.6
		c-0.2,0.3-0.3,0.7-0.3,1.1c0.1,0.4,0.2,0.9,0.5,1.4c0.3,0.6,0.7,1.1,1,1.6c0.4,0.6,0.9,1.2,1.3,1.9c0.6,0.8,1.1,1.7,1.6,2.6
		c0.5,0.9,0.8,1.9,1,2.7c0.2,0.9,0.3,1.8,0.1,2.8s-0.5,1.8-1.1,2.7c-0.7,1-1.5,1.7-2.4,2.2c-0.9,0.5-2,0.8-3.1,0.9
		c-1.1,0.1-2.3-0.1-3.5-0.5c-1.2-0.4-2.4-1.1-3.6-1.9c-2.2-1.6-3.6-3.4-4.2-5.5c-0.7-2.2-0.6-4.5,0.1-6.9l5.6,2.1
		c-0.1,0.4-0.2,0.9-0.2,1.6c0,0.5,0,1,0.2,1.6c0.1,0.5,0.4,1.1,0.7,1.6c0.3,0.5,0.8,0.9,1.3,1.3c0.9,0.6,1.6,0.9,2.3,0.9
		c0.7-0.1,1.2-0.3,1.5-0.8c0.3-0.4,0.4-0.9,0.3-1.3c-0.1-0.5-0.3-1-0.6-1.6c-0.3-0.6-0.7-1.3-1.2-1.9c-0.4-0.6-1-1.3-1.5-2.2
		c-0.5-0.7-0.9-1.4-1.3-2.1c-0.4-0.7-0.7-1.5-0.8-2.3s-0.2-1.7,0-2.6c0.1-0.8,0.5-1.7,1.2-2.6c0.6-0.8,1.3-1.4,2.2-1.9
		c0.9-0.5,1.9-0.7,3-0.8s2.2,0.1,3.4,0.4c1.2,0.4,2.3,0.9,3.4,1.7c1,0.7,1.8,1.5,2.5,2.4c0.7,0.9,1.2,1.9,1.5,2.9
		c0.4,1,0.5,2,0.5,3.1c0,1.1-0.2,2.1-0.5,3L110.9,160.9z"/>
	<path class="st2" d="M139.7,164.2l-1.8,5.4l-7.3-2.4l-6.1,18.6l-5.7-1.9l6.1-18.6l-7.2-2.4l1.8-5.4L139.7,164.2z"/>
	<path class="st2" d="M158.7,183.5l0,5.7l-18.5,0.3l0.1-25.2l18.3-0.3l0,5.7l-12.3,0.2l0,4.1l9.6-0.2l0,5.3l-9.6,0.2l0,4.5
		L158.7,183.5z"/>
	<path class="st2" d="M177.9,180.8l-9.6,2.7l-0.3,4.2l-6.2,1.8l2.8-26.9l5.5-1.6l16.6,21.4l-6.3,1.8L177.9,180.8z M174.6,176.2
		l-3.1-4.2c-0.2-0.3-0.5-0.6-0.7-1c0-0.1-0.3-0.4-0.7-1c0-0.1-0.1-0.2-0.3-0.4c-0.1-0.2-0.2-0.3-0.3-0.4l-0.2-0.4l0,0l0,0.4
		c0,0.1,0,0.3,0,0.5c0,0.2,0,0.4,0,0.5c0,0.8,0,1.2,0,1.2c0,0.5,0,0.9-0.1,1.3l-0.4,5.2L174.6,176.2z"/>
	<path class="st2" d="M203.4,171.6l-12.2-4.5l-0.6,2.9l4.6,7l-5,3.3l-13.8-21.1l5-3.3l2.3,3.4l1.4,2.2l0.9,1.4l0.5,0.8l0.1,0.2l0,0
		l0.1-0.2l0.2-0.7c0-0.1,0.1-0.3,0.1-0.6c0.1-0.3,0.1-0.6,0.2-0.8l0.5-2.2l1.8-8.5l6.2-4.1l-3,14.8l16.9,6.2L203.4,171.6z"/>
</g>
<g>
	<path d="M78.8,180.6l-0.1-0.1c1.2,1.1,2.1,2.2,2.7,3.5s1,2.5,1.1,3.8c0.1,1.3,0,2.5-0.4,3.7c-0.4,1.2-1.1,2.3-1.9,3.2
		c-0.6,0.7-1.2,1.2-1.9,1.5c-0.6,0.3-1.3,0.6-2.1,0.8c-0.7,0.2-1.4,0.2-2,0.2c-0.6,0-1.2-0.2-1.8-0.4l0,0c0.4,0.8,0.8,1.6,1,2.5
		c0.2,0.9,0.2,1.8,0.1,2.8c-0.1,1-0.3,1.9-0.7,2.7c-0.3,0.9-0.8,1.7-1.5,2.3c-1,1.1-2.1,1.9-3.4,2.5s-2.6,0.9-4,0.9
		c-1.5,0-2.9-0.3-4.4-1c-1.5-0.6-3-1.7-4.7-3.2l-11.2-10.3l23.9-25.9L78.8,180.6z M58.9,200.8L58.9,200.8c1.1,1,2.2,1.5,3.2,1.5
		c1.1,0,2.1-0.5,2.8-1.3c0.8-0.9,1.2-1.9,1.1-3s-0.7-2.1-1.7-3l-4.3-4l-5.4,5.9L58.9,200.8z M68.1,189.6L68.1,189.6
		c0.9,0.7,1.8,1.1,2.8,1.2c1,0.1,1.8-0.3,2.4-1s0.9-1.5,0.8-2.5c-0.2-1-0.7-1.8-1.5-2.6l-3.7-3.5l-4.5,4.9L68.1,189.6z"/>
	<path d="M92.8,225.1l-12.4-6.4l-4.3,4l-8.1-4.2l28.6-24.8l7.1,3.7l-3.6,37.8l-8.1-4.2L92.8,225.1z M93.9,217.2l0.8-7.2
		c0.1-0.5,0.1-1.1,0.2-1.8c0-0.1,0.1-0.7,0.3-1.7c0-0.1,0.1-0.4,0.1-0.7c0-0.3,0.1-0.5,0.1-0.7l0.1-0.6l0,0l-0.4,0.4
		c-0.1,0.1-0.2,0.3-0.5,0.5c-0.2,0.2-0.4,0.4-0.5,0.5c-0.7,0.8-1.1,1.2-1.2,1.2c-0.5,0.4-0.9,0.8-1.3,1.2l-5.4,4.9L93.9,217.2z"/>
	<path d="M146.2,208.5l-6.3,34.9l-7.8-1.4l-5.4-10.9c-0.6-1.2-1.2-2.6-1.9-4c-0.7-1.4-1.3-2.8-1.9-4c-0.2-0.4-0.5-1-0.8-1.7
		c-0.3-0.7-0.6-1.2-0.7-1.5l-0.6-1.2l0,0l-0.2,0.9l-0.5,2.7l-0.7,4.1l-0.9,5.2l-1.4,7.6l-8.3-1.5L115,203l7.8,1.4l5.6,11.2
		c0.7,1.4,1.2,2.5,1.6,3.2c0.1,0.3,0.4,0.9,0.9,1.8s0.8,1.6,1,2.1c0.5,1,1,2.1,1.6,3.2l0.7,1.4l0,0l0.2-1.1l0.5-2.8l0.7-4l0.8-4.6
		l1.4-7.9L146.2,208.5z"/>
	<path d="M173,235.4l-13.9,1.7l-1.3,5.7l-9,1.1l9.7-36.6l8-1l18.2,33.3l-9.1,1.1L173,235.4z M169.5,228.3l-3.4-6.4
		c-0.3-0.5-0.5-1-0.8-1.6c0-0.1-0.3-0.6-0.7-1.6c0-0.1-0.1-0.3-0.3-0.6c-0.1-0.3-0.2-0.5-0.3-0.6l-0.2-0.5l0,0l-0.1,0.5
		c0,0.1-0.1,0.4-0.1,0.6c-0.1,0.3-0.1,0.5-0.1,0.7c-0.2,1-0.3,1.6-0.3,1.7c-0.1,0.6-0.3,1.2-0.4,1.7l-1.7,7.1L169.5,228.3z"/>
	<path d="M207.9,191.7l14.4,32.4l-7.3,3.2l-10.6-6c-1.2-0.7-2.5-1.4-3.8-2.3c-1.4-0.8-2.6-1.6-3.8-2.3c-0.4-0.2-0.9-0.5-1.6-0.9
		c-0.7-0.4-1.1-0.7-1.4-0.8l-1.2-0.7l0,0l0.4,0.9l1.1,2.5l1.7,3.8l2.2,4.8l3.2,7.1l-7.7,3.4L179,204.7l7.3-3.2l11,6.2
		c1.3,0.8,2.4,1.4,3.1,1.8c0.3,0.2,0.9,0.5,1.8,1c0.9,0.5,1.5,0.9,2,1.2c1,0.6,2,1.2,3.1,1.8l1.3,0.7l0,0l-0.5-1l-1.2-2.6l-1.6-3.7
		l-1.9-4.3l-3.3-7.4L207.9,191.7z"/>
	<path d="M245.1,198.9l-10.5,9.2l2.1,5.5l-6.8,6l-12.5-35.8l6-5.3l33.8,17.3l-6.9,6L245.1,198.9z M238.2,194.9l-6.4-3.4
		c-0.5-0.2-1-0.5-1.5-0.9c-0.1-0.1-0.6-0.4-1.5-0.9c-0.1-0.1-0.3-0.2-0.6-0.4c-0.3-0.2-0.5-0.3-0.6-0.4l-0.5-0.3l0,0l0.2,0.5
		c0.1,0.1,0.2,0.3,0.3,0.6c0.1,0.3,0.2,0.5,0.3,0.6c0.4,1,0.7,1.5,0.7,1.6c0.2,0.6,0.5,1.1,0.6,1.7l2.6,6.8L238.2,194.9z"/>
</g>
</svg>
